<svg width="36" height="36" viewBox="0 0 36 36" fill="none" xmlns="http://www.w3.org/2000/svg">
<path opacity="0.4" d="M18 33C26.2843 33 33 26.2843 33 18C33 9.71573 26.2843 3 18 3C9.71573 3 3 9.71573 3 18C3 26.2843 9.71573 33 18 33Z" fill="#7B8C9F"/>
<path d="M17.9999 14.8052C17.2649 14.8052 16.6499 15.4052 16.6499 16.1552V19.8602C16.6499 20.6102 17.2499 21.2102 17.9999 21.2102C18.7499 21.2102 19.3499 20.6102 19.3499 19.8602V16.1552C19.3499 15.4052 18.7349 14.8052 17.9999 14.8052Z" fill="#7B8C9F"/>
<path d="M18 26.3248C14.07 26.3248 10.875 23.1298 10.875 19.1998V16.7998C10.875 12.8698 14.07 9.6748 18 9.6748C21.93 9.6748 25.125 12.8698 25.125 16.7998V19.1998C25.125 23.1298 21.93 26.3248 18 26.3248ZM18 11.9248C15.315 11.9248 13.125 14.1148 13.125 16.7998V19.1998C13.125 21.8848 15.315 24.0748 18 24.0748C20.685 24.0748 22.875 21.8848 22.875 19.1998V16.7998C22.875 14.1148 20.685 11.9248 18 11.9248Z" fill="#7B8C9F"/>
</svg>
